<svg xmlns="http://www.w3.org/2000/svg" width="55.367" height="55.367" viewBox="0 0 55.367 55.367">
<defs>
<style>
                                            .details-item-a {
                                                fill: #fb8d04;
                                            }
                                        </style>
</defs>
<g transform="translate(-451.193 -614.509)">
<g transform="translate(451.193 614.509)">
<g transform="translate(0 21.519)">
<g transform="translate(33.058 0.005)">
<path class="details-item-a" d="M605.717,727.217l-.32-1.242,19.083-4.913-19.1-4.915.32-1.242,21.509,5.536a.641.641,0,0,1,0,1.242Z" transform="translate(-605.383 -714.905)"></path>
</g>
<path class="details-item-a" d="M473.212,727.209l-21.537-5.544a.641.641,0,0,1,0-1.242L473.2,714.88l.32,1.242-19.117,4.921,19.125,4.923Z" transform="translate(-451.193 -714.88)"></path>
</g>
<g transform="translate(21.72 21.699)">
<rect class="details-item-a" width="1.282" height="15.636" transform="translate(0 0.907) rotate(-44.999)"></rect>
<g transform="translate(0.018 0.018)">
<rect class="details-item-a" width="15.587" height="1.282" transform="translate(0 11.022) rotate(-45)"></rect>
</g>
</g>
<g transform="translate(21.52 0)">
<g transform="translate(0.005)">
<path class="details-item-a" d="M552.833,636.819l-1.242-.32,5.537-21.509a.641.641,0,0,1,1.242,0l5.533,21.495-1.242.32-4.912-19.083Z" transform="translate(-551.591 -614.509)"></path>
</g>
<g transform="translate(0 33.029)">
<path class="details-item-a" d="M557.731,790.9a.641.641,0,0,1-.621-.481l-5.542-21.529,1.242-.32,4.921,19.117,4.923-19.126,1.242.32-5.544,21.537A.641.641,0,0,1,557.731,790.9Z" transform="translate(-551.568 -768.565)"></path>
</g>
</g>
<g transform="translate(27.042 9.641)">
<path class="details-item-a" d="M577.968,694.734a.641.641,0,0,1-.641-.641V660.12a.641.641,0,0,1,1.282,0v33.973A.641.641,0,0,1,577.968,694.734Z" transform="translate(-577.327 -659.479)"></path>
</g>
<g transform="translate(10.056 26.628)">
<path class="details-item-a" d="M532.712,739.992H498.739a.641.641,0,0,1,0-1.282h33.973a.641.641,0,0,1,0,1.282Z" transform="translate(-498.098 -738.71)"></path>
</g>
</g>
<g transform="translate(481.484 644.794)">
<path class="details-item-a" d="M593.12,768.234a.641.641,0,0,1-.14-1.267,14.209,14.209,0,0,0,10.709-10.7.641.641,0,1,1,1.251.281,15.5,15.5,0,0,1-11.679,11.668A.648.648,0,0,1,593.12,768.234Z" transform="translate(-592.479 -755.769)"></path>
</g>
<g transform="translate(481.471 627.077)">
<path class="details-item-a" d="M604.277,685.648a.641.641,0,0,1-.625-.5,14.2,14.2,0,0,0-10.733-10.75.641.641,0,1,1,.279-1.251A15.485,15.485,0,0,1,604.9,684.869a.641.641,0,0,1-.487.765A.658.658,0,0,1,604.277,685.648Z" transform="translate(-592.417 -673.129)"></path>
</g>
<g transform="translate(463.776 627.076)">
<path class="details-item-a" d="M510.528,685.643a.671.671,0,0,1-.139-.015.641.641,0,0,1-.487-.765,15.486,15.486,0,0,1,11.708-11.722.641.641,0,1,1,.279,1.251,14.2,14.2,0,0,0-10.735,10.748A.641.641,0,0,1,510.528,685.643Z" transform="translate(-509.886 -673.126)"></path>
</g>
<g transform="translate(463.787 644.794)">
<path class="details-item-a" d="M521.777,768.233a.647.647,0,0,1-.141-.015,15.5,15.5,0,0,1-11.685-11.67.641.641,0,1,1,1.251-.281,14.209,14.209,0,0,0,10.714,10.7.641.641,0,0,1-.139,1.267Z" transform="translate(-509.935 -755.765)"></path>
</g>
<g transform="translate(464.181 627.467)">
<g transform="translate(0 0)">
<path class="details-item-a" d="M520.954,684.772a.638.638,0,0,1-.453-.188l-8.541-8.541a.641.641,0,0,1,.907-.907l8.541,8.541a.641.641,0,0,1-.453,1.094Z" transform="translate(-511.772 -674.949)"></path>
</g>
<g transform="translate(19.495 19.495)">
<path class="details-item-a" d="M611.883,775.7a.638.638,0,0,1-.453-.188l-8.541-8.541a.641.641,0,0,1,.907-.907l8.541,8.541a.641.641,0,0,1-.453,1.095Z" transform="translate(-602.701 -765.878)"></path>
</g>
</g>
<g transform="translate(464.181 627.467)">
<g transform="translate(19.495 0)">
<path class="details-item-a" d="M603.342,684.772a.641.641,0,0,1-.453-1.094l8.541-8.541a.641.641,0,0,1,.906.907l-8.541,8.541A.639.639,0,0,1,603.342,684.772Z" transform="translate(-602.701 -674.949)"></path>
</g>
<g transform="translate(0 19.495)">
<path class="details-item-a" d="M512.413,775.7a.641.641,0,0,1-.453-1.095l8.541-8.541a.641.641,0,0,1,.906.907l-8.541,8.541A.639.639,0,0,1,512.413,775.7Z" transform="translate(-511.772 -765.878)"></path>
</g>
</g>
</g>
</svg>