<svg  xmlns="http://www.w3.org/2000/svg" xmlns:xlink="http://www.w3.org/1999/xlink" version="1.1" id="Layer_1" x="0px" y="0px" viewBox="0 0 1080 1080" xml:space="preserve">
<style type="text/css">
	.st0{fill:#FFFFFF;}
	.stt{fill:#283A97;}
	.st2{fill:#FF8200;}
</style>
<g>
	<path class="st0" d="M595.07,2.73C253.59-31.09-31.08,253.6,2.73,595.11c25.03,252.73,229.45,457.14,482.18,482.16   c341.55,33.81,626.23-250.94,592.34-592.44C1052.18,232.13,847.77,27.76,595.07,2.73z"></path>
	<g>
		<path class="stt" d="M540,100c-243,0-440,196.99-440,440c0,243,197,439.99,440,439.99C783,979.99,980,783,980,540    C980,296.99,783,100,540,100z M540,828.52c-159.34,0-288.51-129.17-288.51-288.52c0-159.34,129.17-288.51,288.51-288.51    S828.52,380.66,828.52,540C828.52,699.34,699.34,828.52,540,828.52z"></path>
		<path class="st2" d="M562.3,322.45c-138.27-13.69-253.54,101.58-239.85,239.87c10.13,102.33,92.91,185.1,195.24,195.24    c138.3,13.69,253.57-101.61,239.85-239.89C747.39,415.34,664.62,332.58,562.3,322.45z"></path>
	</g>
</g>
</svg>