<svg version="1.2" xmlns="http://www.w3.org/2000/svg" viewBox="0 0 280 44" width="178" height="28">
	<title>logo-svg</title>
	<style>
		.s0 { fill: #00aeef }
		.s1 { fill: #00aeef }
		.s2 { fill: #00aeef }
	</style>
	<g id="Layer">
		<path id="Layer" fill-rule="evenodd" class="s0" d="m271.8 32.3h3.7c0.1 0 0.2 0.1 0.2 0.2v3.8c0 0.1-0.1 0.2-0.2 0.2h-4.8c-1.8 0-3.3-1.5-3.3-3.3v-22.8c0-0.1 0.1-0.2 0.2-0.2h3.8c0.1 0 0.2 0 0.2 0.2v5.3c0 0.1 0.1 0.3 0.2 0.3h3.6c0.2 0 0.3 0 0.3 0.2v3.8c0 0.1-0.1 0.2-0.3 0.2h-3.6c-0.1 0-0.2 0.1-0.2 0.2v11.6c0 0.2 0.1 0.3 0.2 0.3z"/>
		<path id="Layer" fill-rule="evenodd" class="s0" d="m257.5 32.3c1.7 0 3.3-0.7 4.5-1.9l0.5-0.5c0.1 0 0.2 0 0.3 0l2.7 2.7c0.1 0.1 0.1 0.2 0 0.3l-0.5 0.5c-2 2-4.7 3.1-7.5 3.1-5.3 0-9.9-4-10.5-9.3q-0.1-0.6-0.1-1.3 0-0.7 0.1-1.3c0.6-5.3 5.2-9.3 10.5-9.3 2.8 0 5.5 1.1 7.5 3.1l0.5 0.5c0.1 0.1 0.1 0.2 0 0.3l-2.7 2.6c-0.1 0.1-0.2 0.1-0.3 0l-0.5-0.4c-1.2-1.2-2.8-1.9-4.5-1.9-3.1 0-5.8 2.3-6.3 5.3q-0.1 0.6-0.1 1.1 0 0.5 0.1 1c0.5 3.1 3.2 5.4 6.3 5.4z"/>
		<path id="Layer" fill-rule="evenodd" class="s0" d="m186.9 26.1l-6.6-9.8q-0.1-0.1 0-0.2 0-0.1 0.2-0.1h4.6q0.1 0 0.1 0l4.2 6.2q0.1 0.1 0.2 0.1 0.1 0 0.2-0.1l4.2-6.2q0 0 0.2 0h4.5q0.2 0 0.2 0.1 0.1 0.1 0 0.2l-6.6 9.8q-0.1 0.1 0 0.3l6.6 9.7q0.1 0.1 0 0.3 0 0.1-0.2 0.1h-4.5q-0.2 0-0.2-0.1l-4.2-6.1q-0.1-0.1-0.2-0.2-0.1 0.1-0.2 0.2l-4.2 6.1q0 0.1-0.1 0.1h-4.6q-0.2 0-0.2-0.1-0.1-0.2 0-0.3l6.6-9.8q0.1-0.1 0-0.2z"/>
		<path id="Layer" fill-rule="evenodd" class="s0" d="m211.4 15.3q0.6 0 1.3 0.1c5.3 0.6 9.3 5.2 9.3 10.5 0 5.3-4 9.9-9.3 10.5q-0.7 0.1-1.3 0.1-0.7 0-1.3-0.1-1.5-0.1-2.8-0.7-0.1-0.1-0.1-0.2v-4.3q0-0.2 0.1-0.2 0.1-0.1 0.2 0c0.8 0.6 1.8 1 2.7 1.2h0.1q0.6 0.1 1.1 0.1 0.5 0 1-0.1c3.1-0.5 5.4-3.2 5.4-6.3 0-3.1-2.2-5.8-5.3-6.3h-0.1q-0.5-0.1-1-0.1-0.5 0-1.1 0.1c-3 0.5-5.3 3.2-5.3 6.3v16c0 0.1-0.1 0.2-0.2 0.2h-3.8c-0.1 0-0.2-0.1-0.2-0.2v-16c0-5.3 4-9.9 9.3-10.5q0.6-0.1 1.3-0.1z"/>
		<path id="Layer" fill-rule="evenodd" class="s0" d="m172.8 29.9c0.1-0.1 0.2-0.1 0.3 0l2.6 2.7c0.1 0.1 0.1 0.2 0 0.3l-0.4 0.5c-2 2-4.7 3.1-7.5 3.1-5.4 0-9.9-4-10.6-9.3q0-0.7 0-1.3 0-0.7 0-1.3c0.7-5.3 5.2-9.3 10.6-9.3 5.3 0 9.8 4 10.5 9.3q0.1 0.6 0.1 1.3 0 0.6-0.1 1.3l-0.1 0.6c0 0.1-0.1 0.2-0.2 0.2h-3.5-0.7-7.4-2.4-0.4q-0.3-1-0.3-2.1 0-1.1 0.3-2.1h0.4 4.7 5.1q0-0.2-0.1-0.3v-0.1c-0.4-1-1.1-1.8-1.9-2.5-1.1-0.9-2.5-1.4-4-1.4-1.5 0-2.9 0.5-4 1.4-0.8 0.7-1.5 1.5-1.9 2.5v0.1q-0.5 1.1-0.5 2.4 0 1.3 0.5 2.4c0.4 1.1 1.1 1.9 1.9 2.6 1.1 0.9 2.5 1.4 4 1.4q1.1 0 2-0.3l0.1-0.1q1.4-0.4 2.4-1.5z"/>
		<path id="Layer" fill-rule="evenodd" class="s0" d="m239.4 29.9c0.1-0.1 0.2-0.1 0.3 0l2.7 2.7c0.1 0.1 0.1 0.2 0 0.3l-0.5 0.5c-2 2-4.7 3.1-7.5 3.1-5.3 0-9.9-4-10.5-9.3q-0.1-0.7-0.1-1.3 0-0.7 0.1-1.3c0.6-5.3 5.2-9.3 10.5-9.3 5.3 0 9.9 4 10.5 9.3q0.1 0.6 0.1 1.3 0 0.6-0.1 1.3v0.6c-0.1 0.1-0.1 0.2-0.3 0.2h-3.5-0.6-7.4-2.5-0.3q-0.4-1-0.4-2.1 0-1.1 0.4-2.1h0.3 4.8 5.1q-0.1-0.2-0.2-0.3v-0.1c-0.4-1-1-1.8-1.9-2.5-1.1-0.9-2.5-1.4-4-1.4-1.5 0-2.9 0.5-4 1.4-0.8 0.7-1.5 1.5-1.9 2.5v0.1q-0.5 1.1-0.5 2.4 0 1.3 0.5 2.4c0.4 1.1 1.1 1.9 1.9 2.6 1.2 0.9 2.6 1.4 4 1.4q1.1 0 2.1-0.3v-0.1q1.4-0.4 2.5-1.5z"/>
		<path id="Layer" fill-rule="evenodd" class="s1" d="m146.6 27.6c-2.3 0-4.3 1.2-5.3 3.1l-4.8-8.7h-4.7v15.2h-6.3v-35.8h12.4q2.5 0 4.9 0.5 2.4 0.5 4.2 1.7 1.9 1.2 3 3.2 1.1 2 1.1 4.8 0 3.9-2.2 6.4-2.2 2.4-6 3.3l3.9 6.3q-0.1 0-0.2 0zm-4.4-11.8q1.1-0.6 1.8-1.6 0.7-1 0.7-2.6 0-1.5-0.6-2.4-0.7-1-1.7-1.5-1-0.6-2.3-0.8-1.3-0.2-2.5-0.2h-5.8v10.1h5.3q1.3 0 2.7-0.2 1.3-0.2 2.4-0.8z"/>
		<path id="Layer" class="s1" d="m150.3 33.7c0 2-1.7 3.7-3.7 3.7-2 0-3.7-1.7-3.7-3.7 0-2.1 1.7-3.7 3.7-3.7 2.1 0 3.7 1.6 3.7 3.7z"/>
		<path id="Layer" class="s1" d="m30.5 1.3v5.6h-10.9v21.7c-1-0.6-2.1-0.9-3.2-0.9-1.2 0-2.3 0.3-3.2 0.9v-21.7h-11v-5.5z"/>
		<path id="Layer" class="s1" d="m20.1 33.8c0 2-1.7 3.7-3.7 3.7-2.1 0-3.7-1.7-3.7-3.7 0-2 1.6-3.7 3.7-3.7 2 0 3.7 1.7 3.7 3.7z"/>
		<path id="Layer" class="s1" d="m112.4 11.2c1.2 0 2.3-0.4 3.2-0.9v14.1q0 3.2-1.1 5.8-1.1 2.6-3 4.4-1.9 1.9-4.6 2.8-2.6 1-5.7 1-3 0-5.7-1-2.6-1-4.6-2.8-1.9-1.8-3-4.4-1.1-2.6-1.1-5.8v-22.7h6.4v22.4q0 1.6 0.4 3.1 0.4 1.6 1.3 2.8 1 1.2 2.5 2 1.6 0.7 3.8 0.7 2.3 0 3.9-0.7 1.5-0.8 2.4-2 1-1.2 1.4-2.8 0.4-1.5 0.4-3.1v-13.8c0.9 0.5 2 0.9 3.1 0.9z"/>
		<path id="Layer" class="s1" d="m108.7 5c0-2 1.7-3.7 3.7-3.7 2.1 0 3.7 1.7 3.7 3.7 0 2.1-1.6 3.8-3.7 3.8-2 0-3.7-1.7-3.7-3.8z"/>
		<path id="Layer" fill-rule="evenodd" class="s1" d="m77.5 20.2c0 10.3-8.4 18.8-18.8 18.8-10.4 0-18.8-8.5-18.8-18.8 0-10.4 8.4-18.8 18.8-18.8 10.4 0 18.8 8.4 18.8 18.8zm-6.5 0c0-6.9-5.5-12.4-12.3-12.4-6.8 0-12.3 5.5-12.3 12.4 0 6.8 5.5 12.3 12.3 12.3 6.8 0 12.3-5.5 12.3-12.3z"/>
		<path id="Layer" class="s2" d="m68 20.2c0 5.1-4.2 9.3-9.3 9.3-5.2 0-9.4-4.2-9.4-9.3 0-5.2 4.2-9.4 9.4-9.4 5.1 0 9.3 4.2 9.3 9.4z"/>
	</g>
</svg>
